<svg id="黑底白字" xmlns="http://www.w3.org/2000/svg" width="1080" height="1080" viewBox="0 0 1080 1080">
  <defs>
    <style>
      .cls-1 {
        fill: #121212;
      }

      .cls-2 {
        fill: #fff;
        fill-rule: evenodd;
      }
    </style>
  </defs>
  <circle id="椭圆_1" data-name="椭圆 1" class="cls-1" cx="540" cy="540" r="540"/>
  <path id="仓_拷贝" data-name="仓 拷贝" class="cls-2" d="M417.367,494.827h182.9V657.734H497.71l5.226,33.339h99.286q32,0,45.071-8.335,16.977-11.366,16.983-43.189V479.672q0-22.731-22.209-25V453.91H355.313V776.694q0,39.408,13.718,54.556,14.359,15.91,52.255,15.911h340.97l3.919-36.37H417.367V494.827Zm82.956-326.573Q397.108,361.469,216.182,488.007l25.475,41.674q158.727-96.218,276.3-253.832Q634.876,437.24,794.915,529.681l33.967-67.436q-173.1-85.615-284.141-224.282,10.44-15.912,30.047-47.736Z"/>
</svg>
