<svg id="黑底白字" xmlns="http://www.w3.org/2000/svg" width="5901" height="1080" viewBox="0 0 5901 1080">
  <defs>
    <style>
      .cls-1 {
        fill: #232323;
      }

      .cls-1, .cls-3 {
        fill-rule: evenodd;
      }

      .cls-2 {
        fill: #121212;
      }

      .cls-3 {
        fill: #fff;
      }
    </style>
  </defs>
  <path id="RuanCang.Net" class="cls-1" d="M1536.05,827.107h88.05L1453.63,568.3q62.685-9.3,98.27-57.34,35.565-48.038,35.57-123.206,0-54.228-19.72-95.309-19.725-41.062-56-63.54-36.3-22.465-84.89-22.471H1215.53V827.107h72.56V569.848h86.64ZM1288.09,271.521h125.39q49.29,0,75.37,30.608,26.055,30.619,26.07,85.623,0,55.791-26.07,86.012t-75.37,30.22H1288.09V271.521Zm707.95,555.586q-2.82-41.844-2.82-106.933V371.48H1926.3V623.314q0,67.414-32.75,108.483t-86.3,41.068q-47.91,0-71.14-27.12-23.25-27.115-23.25-83.687V371.48h-67.62V674.456q0,76.713,37.33,119.331t102.85,42.618q103.545,0,147.22-92.21,2.8,70.5,4.23,82.912h59.17Zm421.24-348.694q0-74.388,2.12-106.933h-59.88q-1.425,13.185-4.23,84.461-21.135-44.929-56.35-69.351-35.235-24.408-82.42-24.409-48.6,0-87.7,29.833t-61.29,84.074q-22.185,54.248-22.19,123.98,0,68.976,22.19,122.818,22.2,53.867,61.29,83.686t87.7,29.833q47.19,0,82.42-24.408t56.35-68.577q2.115,69.74,4.23,83.687h59.88q-2.115-31-2.12-106.933V478.413Zm-82.42,213.478q-14.79,39.918-41.91,61.99t-61.64,22.084a92.219,92.219,0,0,1-60.93-22.084q-26.415-22.084-41.56-61.99-15.165-39.9-15.15-91.823,0-52.684,14.8-92.6t41.56-61.99a93.564,93.564,0,0,1,61.28-22.084q35.22,0,61.99,21.7t41.56,61.99q14.8,40.3,14.8,92.985Q2349.66,651.991,2334.86,691.891Zm461.75-286.7q-36.99-43-102.5-43.006-103.545,0-147.93,91.436-0.7-57.334-4.22-82.137h-59.18q2.82,43.405,2.82,106.933V827.107h67.63V575.272q0-67.415,32.4-108.1t85.94-40.681q47.895,0,71.5,27.121t23.6,82.911V827.107h66.92v-302.2Q2833.59,448.194,2796.61,405.187Zm243.02,332.422q-38.4-31.383-59.53-88.724t-21.13-131.728q0-75.152,21.13-132.5,21.135-57.335,59.53-88.723t88.4-31.383q104.955,0,132.44,104.608l59.87-30.995q-16.2-64.308-66.21-102.671t-124.69-38.356q-71.16,0-126.44,40.294-55.32,40.3-85.94,112.744-30.645,72.464-30.65,166.986,0,94.546,30.65,166.985Q2947.705,756.606,3003,796.5t126.44,39.906q73.965,0,124.34-38.356,50.355-38.357,66.56-102.671l-59.87-31q-27.48,104.608-132.44,104.608Q3078,768.991,3039.63,737.609Zm678.71-259.2q0-74.388,2.12-106.933h-59.88q-1.425,13.185-4.23,84.461-21.135-44.929-56.35-69.351-35.235-24.408-82.42-24.409-48.6,0-87.7,29.833t-61.29,84.074q-22.185,54.248-22.19,123.98,0,68.976,22.19,122.818,22.2,53.867,61.29,83.686t87.7,29.833q47.19,0,82.42-24.408t56.35-68.577q2.115,69.74,4.23,83.687h59.88q-2.115-31-2.12-106.933V478.413Zm-82.42,213.478q-14.79,39.918-41.91,61.99t-61.64,22.084a92.219,92.219,0,0,1-60.93-22.084q-26.415-22.084-41.56-61.99-15.165-39.9-15.15-91.823,0-52.684,14.8-92.6t41.56-61.99a93.564,93.564,0,0,1,61.28-22.084q35.22,0,61.99,21.7t41.56,61.99q14.8,40.3,14.8,92.985Q3650.72,651.991,3635.92,691.891Zm461.75-286.7q-36.99-43-102.5-43.006-103.545,0-147.93,91.436-0.7-57.334-4.22-82.137h-59.17q2.8,43.405,2.81,106.933V827.107h67.63V575.272q0-67.415,32.4-108.1t85.94-40.681q47.895,0,71.5,27.121t23.6,82.911V827.107h66.92v-302.2Q4134.65,448.194,4097.67,405.187ZM4493.9,371.48q-3.525,27.9-4.22,82.912-21.135-44.169-56.01-68.189-34.86-24.009-80.65-24.022-47.925,0-86.65,29.446-38.745,29.457-60.58,82.524-21.84,53.085-21.84,122.043,0,68.976,21.84,122.043,21.825,53.085,60.58,82.136,38.73,29.058,86.65,29.058,42.96,0,76.07-21.309t54.95-60.053V806.96q0,67.414-31.35,102.283t-90.52,34.87q-47.91,0-78.54-18.985-30.645-19-41.21-53.079l-54.95,27.9q14.085,50.361,59.88,77.875,45.78,27.5,118.35,27.51,89.445,0,137.36-52.694,47.895-52.7,47.9-148V478.413q0-63.528,2.82-106.933H4493.9Zm-24.65,314.987q-14.79,39.136-41.21,60.828t-60.23,21.7q-33.81,0-60.23-21.7t-40.86-60.828q-14.445-39.12-14.44-90.273t14.44-90.273q14.43-39.12,40.86-60.828,26.415-21.684,60.23-21.7t60.23,21.7q26.415,21.7,41.21,60.828t14.79,90.273Q4484.04,647.335,4469.25,686.467Zm163.77,60.44q-12.33,13.566-12.32,36.032t12.32,36.031q12.33,13.55,32.76,13.561t32.76-13.561q12.315-13.566,12.32-36.031t-12.32-36.032q-12.33-13.548-32.76-13.56Q4645.335,733.347,4633.02,746.907Zm513.17-540.475V676.781L4860.9,206.432h-78.19V827.107h66.21V331.186l302.2,495.921h60.59V206.432h-65.52Zm480.42,390.537q0-71.283-21.13-124.368-21.135-53.067-61.29-81.749-40.155-28.659-95.1-28.671-52.14,0-93.33,29.833-41.22,29.839-64.81,84.074-23.61,54.248-23.6,123.98,0,70.52,23.95,123.98t67.98,82.912q44.01,29.439,103.2,29.445,119.04,0,155.68-107.708l-55.65-29.445q-14.805,39.519-38.04,58.116-23.25,18.6-62.7,18.6-56.355,0-89.81-41.843t-36.28-118.556h290.23q0.69-4.65.7-18.6h0ZM5374.42,459.428q29.595-36.032,74.67-36.031,47.9,0,76.08,34.869T5558.28,559H5337.79Q5344.825,495.472,5374.42,459.428Zm508.6-26.733V371.48H5782.99V258.348h-67.63V371.48h-63.4V432.7h63.4V713.2q0,57.352,30.65,90.273,30.63,32.927,82.77,32.932,31.7,0,54.24-10.073V766.666q-15.51,6.212-42.27,6.2-28.185,0-42.97-15.5T5782.99,710.1V432.7h100.03Z"/>
  <ellipse id="椭圆_1" data-name="椭圆 1" class="cls-2" cx="532.17" cy="540.001" rx="527.17" ry="527.189"/>
  <path id="仓_拷贝" data-name="仓 拷贝" class="cls-3" d="M371.643,447.078A1016.959,1016.959,0,0,0,517.035,308.752q63.13,82.108,124.986,138.326H371.643ZM819.3,428.585Q661.142,351.661,563.586,251.794q24.226-34.016,36.348-51.78l-126.9-34.027Q372.913,344.264,210.947,461.133l39.536,65.095a927.22,927.22,0,0,0,83.537-51.78v262.6q0,62.881,21.681,87.287,23.584,26.63,84.174,26.629h313.1l4.464-50.3H436.687V504.776H571.238V651.239h-93.1l4.464,47.342h91.827q49.739,0,72.058-11.835,30.609-16.263,30.609-59.917V487.023a50.287,50.287,0,0,0-1.275-10.356,1032.64,1032.64,0,0,0,86.725,62.876Z"/>
</svg>
